<?xml version="1.0" encoding="UTF-8"?>
<svg xmlns="http://www.w3.org/2000/svg" xmlns:xlink="http://www.w3.org/1999/xlink" width="390pt" height="438pt" viewBox="0 0 390 438" version="1.1">
<g id="surface1">
<path style="fill:none;stroke-width:0.4;stroke-linecap:butt;stroke-linejoin:round;stroke:rgb(0%,0%,0%);stroke-opacity:1;stroke-miterlimit:10;" d="M 184 612 L 184 540 L 256 540 L 256 612 Z M 184 612 " transform="matrix(1,0,0,-1,-61.5,698.5)"/>
<path style="fill:none;stroke-width:0.4;stroke-linecap:butt;stroke-linejoin:round;stroke:rgb(0%,0%,0%);stroke-opacity:1;stroke-miterlimit:10;" d="M 220 594 L 202 576 L 220 558 L 238 576 Z M 220 594 " transform="matrix(1,0,0,-1,-61.5,698.5)"/>
<path style="fill:none;stroke-width:0.4;stroke-linecap:butt;stroke-linejoin:round;stroke:rgb(0%,0%,0%);stroke-opacity:1;stroke-miterlimit:10;" d="M 202 576 L 238 576 " transform="matrix(1,0,0,-1,-61.5,698.5)"/>
<path style="fill:none;stroke-width:0.4;stroke-linecap:butt;stroke-linejoin:round;stroke:rgb(0%,0%,0%);stroke-opacity:1;stroke-miterlimit:10;" d="M 184 612 L 202 576 " transform="matrix(1,0,0,-1,-61.5,698.5)"/>
<path style="fill:none;stroke-width:0.4;stroke-linecap:butt;stroke-linejoin:round;stroke:rgb(0%,0%,0%);stroke-opacity:1;stroke-miterlimit:10;" d="M 184 612 L 220 594 " transform="matrix(1,0,0,-1,-61.5,698.5)"/>
<path style="fill:none;stroke-width:0.4;stroke-linecap:butt;stroke-linejoin:round;stroke:rgb(0%,0%,0%);stroke-opacity:1;stroke-miterlimit:10;" d="M 220 594 L 256 612 " transform="matrix(1,0,0,-1,-61.5,698.5)"/>
<path style="fill:none;stroke-width:0.4;stroke-linecap:butt;stroke-linejoin:round;stroke:rgb(0%,0%,0%);stroke-opacity:1;stroke-miterlimit:10;" d="M 256 612 L 238 576 " transform="matrix(1,0,0,-1,-61.5,698.5)"/>
<path style="fill:none;stroke-width:0.4;stroke-linecap:butt;stroke-linejoin:round;stroke:rgb(0%,0%,0%);stroke-opacity:1;stroke-miterlimit:10;" d="M 238 576 L 256 540 " transform="matrix(1,0,0,-1,-61.5,698.5)"/>
<path style="fill:none;stroke-width:0.4;stroke-linecap:butt;stroke-linejoin:round;stroke:rgb(0%,0%,0%);stroke-opacity:1;stroke-miterlimit:10;" d="M 256 540 L 220 558 " transform="matrix(1,0,0,-1,-61.5,698.5)"/>
<path style="fill:none;stroke-width:0.4;stroke-linecap:butt;stroke-linejoin:round;stroke:rgb(0%,0%,0%);stroke-opacity:1;stroke-miterlimit:10;" d="M 220 558 L 184 540 " transform="matrix(1,0,0,-1,-61.5,698.5)"/>
<path style="fill:none;stroke-width:0.4;stroke-linecap:butt;stroke-linejoin:round;stroke:rgb(0%,0%,0%);stroke-opacity:1;stroke-miterlimit:10;" d="M 184 540 L 202 576 " transform="matrix(1,0,0,-1,-61.5,698.5)"/>
<path style=" stroke:none;fill-rule:evenodd;fill:rgb(0%,0%,0%);fill-opacity:1;" d="M 142.300781 122.5 C 142.300781 120.101562 138.699219 120.101562 138.699219 122.5 C 138.699219 124.898438 142.300781 124.898438 142.300781 122.5 Z M 142.300781 122.5 "/>
<path style=" stroke:none;fill-rule:evenodd;fill:rgb(0%,0%,0%);fill-opacity:1;" d="M 160.300781 104.5 C 160.300781 102.101562 156.699219 102.101562 156.699219 104.5 C 156.699219 106.898438 160.300781 106.898438 160.300781 104.5 Z M 160.300781 104.5 "/>
<path style=" stroke:none;fill-rule:evenodd;fill:rgb(0%,0%,0%);fill-opacity:1;" d="M 178.300781 122.5 C 178.300781 120.101562 174.699219 120.101562 174.699219 122.5 C 174.699219 124.898438 178.300781 124.898438 178.300781 122.5 Z M 178.300781 122.5 "/>
<path style=" stroke:none;fill-rule:evenodd;fill:rgb(0%,0%,0%);fill-opacity:1;" d="M 160.300781 140.5 C 160.300781 138.101562 156.699219 138.101562 156.699219 140.5 C 156.699219 142.898438 160.300781 142.898438 160.300781 140.5 Z M 160.300781 140.5 "/>
<path style=" stroke:none;fill-rule:evenodd;fill:rgb(0%,0%,0%);fill-opacity:1;" d="M 124.300781 158.5 C 124.300781 156.101562 120.699219 156.101562 120.699219 158.5 C 120.699219 160.898438 124.300781 160.898438 124.300781 158.5 Z M 124.300781 158.5 "/>
<path style=" stroke:none;fill-rule:evenodd;fill:rgb(0%,0%,0%);fill-opacity:1;" d="M 196.300781 158.5 C 196.300781 156.101562 192.699219 156.101562 192.699219 158.5 C 192.699219 160.898438 196.300781 160.898438 196.300781 158.5 Z M 196.300781 158.5 "/>
<path style=" stroke:none;fill-rule:evenodd;fill:rgb(0%,0%,0%);fill-opacity:1;" d="M 196.300781 86.5 C 196.300781 84.101562 192.699219 84.101562 192.699219 86.5 C 192.699219 88.898438 196.300781 88.898438 196.300781 86.5 Z M 196.300781 86.5 "/>
<path style=" stroke:none;fill-rule:evenodd;fill:rgb(0%,0%,0%);fill-opacity:1;" d="M 124.300781 86.5 C 124.300781 84.101562 120.699219 84.101562 120.699219 86.5 C 120.699219 88.898438 124.300781 88.898438 124.300781 86.5 Z M 124.300781 86.5 "/>
<path style="fill:none;stroke-width:0.4;stroke-linecap:butt;stroke-linejoin:round;stroke:rgb(0%,0%,0%);stroke-opacity:1;stroke-miterlimit:10;" d="M 256 612 L 256 540 L 328 540 L 328 612 Z M 256 612 " transform="matrix(1,0,0,-1,-61.5,698.5)"/>
<path style="fill:none;stroke-width:0.4;stroke-linecap:butt;stroke-linejoin:round;stroke:rgb(0%,0%,0%);stroke-opacity:1;stroke-miterlimit:10;" d="M 292 594 L 274 576 L 292 558 L 310 576 Z M 292 594 " transform="matrix(1,0,0,-1,-61.5,698.5)"/>
<path style="fill:none;stroke-width:0.4;stroke-linecap:butt;stroke-linejoin:round;stroke:rgb(0%,0%,0%);stroke-opacity:1;stroke-miterlimit:10;" d="M 274 576 L 310 576 " transform="matrix(1,0,0,-1,-61.5,698.5)"/>
<path style="fill:none;stroke-width:0.4;stroke-linecap:butt;stroke-linejoin:round;stroke:rgb(0%,0%,0%);stroke-opacity:1;stroke-miterlimit:10;" d="M 256 612 L 274 576 " transform="matrix(1,0,0,-1,-61.5,698.5)"/>
<path style="fill:none;stroke-width:0.4;stroke-linecap:butt;stroke-linejoin:round;stroke:rgb(0%,0%,0%);stroke-opacity:1;stroke-miterlimit:10;" d="M 256 612 L 292 594 " transform="matrix(1,0,0,-1,-61.5,698.5)"/>
<path style="fill:none;stroke-width:0.4;stroke-linecap:butt;stroke-linejoin:round;stroke:rgb(0%,0%,0%);stroke-opacity:1;stroke-miterlimit:10;" d="M 292 594 L 328 612 " transform="matrix(1,0,0,-1,-61.5,698.5)"/>
<path style="fill:none;stroke-width:0.4;stroke-linecap:butt;stroke-linejoin:round;stroke:rgb(0%,0%,0%);stroke-opacity:1;stroke-miterlimit:10;" d="M 328 612 L 310 576 " transform="matrix(1,0,0,-1,-61.5,698.5)"/>
<path style="fill:none;stroke-width:0.4;stroke-linecap:butt;stroke-linejoin:round;stroke:rgb(0%,0%,0%);stroke-opacity:1;stroke-miterlimit:10;" d="M 310 576 L 328 540 " transform="matrix(1,0,0,-1,-61.5,698.5)"/>
<path style="fill:none;stroke-width:0.4;stroke-linecap:butt;stroke-linejoin:round;stroke:rgb(0%,0%,0%);stroke-opacity:1;stroke-miterlimit:10;" d="M 328 540 L 292 558 " transform="matrix(1,0,0,-1,-61.5,698.5)"/>
<path style="fill:none;stroke-width:0.4;stroke-linecap:butt;stroke-linejoin:round;stroke:rgb(0%,0%,0%);stroke-opacity:1;stroke-miterlimit:10;" d="M 292 558 L 256 540 " transform="matrix(1,0,0,-1,-61.5,698.5)"/>
<path style="fill:none;stroke-width:0.4;stroke-linecap:butt;stroke-linejoin:round;stroke:rgb(0%,0%,0%);stroke-opacity:1;stroke-miterlimit:10;" d="M 256 540 L 274 576 " transform="matrix(1,0,0,-1,-61.5,698.5)"/>
<path style=" stroke:none;fill-rule:evenodd;fill:rgb(0%,0%,0%);fill-opacity:1;" d="M 214.300781 122.5 C 214.300781 120.101562 210.699219 120.101562 210.699219 122.5 C 210.699219 124.898438 214.300781 124.898438 214.300781 122.5 Z M 214.300781 122.5 "/>
<path style=" stroke:none;fill-rule:evenodd;fill:rgb(0%,0%,0%);fill-opacity:1;" d="M 232.300781 104.5 C 232.300781 102.101562 228.699219 102.101562 228.699219 104.5 C 228.699219 106.898438 232.300781 106.898438 232.300781 104.5 Z M 232.300781 104.5 "/>
<path style=" stroke:none;fill-rule:evenodd;fill:rgb(0%,0%,0%);fill-opacity:1;" d="M 250.300781 122.5 C 250.300781 120.101562 246.699219 120.101562 246.699219 122.5 C 246.699219 124.898438 250.300781 124.898438 250.300781 122.5 Z M 250.300781 122.5 "/>
<path style=" stroke:none;fill-rule:evenodd;fill:rgb(0%,0%,0%);fill-opacity:1;" d="M 232.300781 140.5 C 232.300781 138.101562 228.699219 138.101562 228.699219 140.5 C 228.699219 142.898438 232.300781 142.898438 232.300781 140.5 Z M 232.300781 140.5 "/>
<path style=" stroke:none;fill-rule:evenodd;fill:rgb(0%,0%,0%);fill-opacity:1;" d="M 196.300781 158.5 C 196.300781 156.101562 192.699219 156.101562 192.699219 158.5 C 192.699219 160.898438 196.300781 160.898438 196.300781 158.5 Z M 196.300781 158.5 "/>
<path style=" stroke:none;fill-rule:evenodd;fill:rgb(0%,0%,0%);fill-opacity:1;" d="M 268.300781 158.5 C 268.300781 156.101562 264.699219 156.101562 264.699219 158.5 C 264.699219 160.898438 268.300781 160.898438 268.300781 158.5 Z M 268.300781 158.5 "/>
<path style=" stroke:none;fill-rule:evenodd;fill:rgb(0%,0%,0%);fill-opacity:1;" d="M 268.300781 86.5 C 268.300781 84.101562 264.699219 84.101562 264.699219 86.5 C 264.699219 88.898438 268.300781 88.898438 268.300781 86.5 Z M 268.300781 86.5 "/>
<path style=" stroke:none;fill-rule:evenodd;fill:rgb(0%,0%,0%);fill-opacity:1;" d="M 196.300781 86.5 C 196.300781 84.101562 192.699219 84.101562 192.699219 86.5 C 192.699219 88.898438 196.300781 88.898438 196.300781 86.5 Z M 196.300781 86.5 "/>
<path style="fill:none;stroke-width:0.4;stroke-linecap:butt;stroke-linejoin:round;stroke:rgb(0%,0%,0%);stroke-opacity:1;stroke-miterlimit:10;" d="M 184 612 C 232 628 280 628 328 612 " transform="matrix(1,0,0,-1,-61.5,698.5)"/>
<path style="fill:none;stroke-width:0.4;stroke-linecap:butt;stroke-linejoin:round;stroke:rgb(0%,0%,0%);stroke-opacity:1;stroke-miterlimit:10;" d="M 184 540 C 232 524 280 524 328 540 " transform="matrix(1,0,0,-1,-61.5,698.5)"/>
<path style=" stroke:none;fill-rule:evenodd;fill:rgb(0%,0%,0%);fill-opacity:1;" d="M 196.300781 50.5 C 196.300781 48.101562 192.699219 48.101562 192.699219 50.5 C 192.699219 52.898438 196.300781 52.898438 196.300781 50.5 Z M 196.300781 50.5 "/>
<path style=" stroke:none;fill-rule:evenodd;fill:rgb(0%,0%,0%);fill-opacity:1;" d="M 196.300781 194.5 C 196.300781 192.101562 192.699219 192.101562 192.699219 194.5 C 192.699219 196.898438 196.300781 196.898438 196.300781 194.5 Z M 196.300781 194.5 "/>
<path style=" stroke:none;fill-rule:evenodd;fill:rgb(0%,0%,0%);fill-opacity:1;" d="M 100.300781 122.5 C 100.300781 120.101562 96.699219 120.101562 96.699219 122.5 C 96.699219 124.898438 100.300781 124.898438 100.300781 122.5 Z M 100.300781 122.5 "/>
<path style=" stroke:none;fill-rule:evenodd;fill:rgb(0%,0%,0%);fill-opacity:1;" d="M 292.300781 122.5 C 292.300781 120.101562 288.699219 120.101562 288.699219 122.5 C 288.699219 124.898438 292.300781 124.898438 292.300781 122.5 Z M 292.300781 122.5 "/>
<path style="fill:none;stroke-width:0.4;stroke-linecap:butt;stroke-linejoin:round;stroke:rgb(0%,0%,0%);stroke-opacity:1;stroke-miterlimit:10;" d="M 160 576 L 184 612 " transform="matrix(1,0,0,-1,-61.5,698.5)"/>
<path style="fill:none;stroke-width:0.4;stroke-linecap:butt;stroke-linejoin:round;stroke:rgb(0%,0%,0%);stroke-opacity:1;stroke-miterlimit:10;" d="M 160 576 L 184 540 " transform="matrix(1,0,0,-1,-61.5,698.5)"/>
<path style="fill:none;stroke-width:0.4;stroke-linecap:butt;stroke-linejoin:round;stroke:rgb(0%,0%,0%);stroke-opacity:1;stroke-miterlimit:10;" d="M 352 576 L 328 540 " transform="matrix(1,0,0,-1,-61.5,698.5)"/>
<path style="fill:none;stroke-width:0.4;stroke-linecap:butt;stroke-linejoin:round;stroke:rgb(0%,0%,0%);stroke-opacity:1;stroke-miterlimit:10;" d="M 352 576 L 328 612 " transform="matrix(1,0,0,-1,-61.5,698.5)"/>
<path style="fill:none;stroke-width:0.4;stroke-linecap:butt;stroke-linejoin:round;stroke:rgb(0%,0%,0%);stroke-opacity:1;stroke-miterlimit:10;" d="M 256 648 L 184 612 " transform="matrix(1,0,0,-1,-61.5,698.5)"/>
<path style="fill:none;stroke-width:0.4;stroke-linecap:butt;stroke-linejoin:round;stroke:rgb(0%,0%,0%);stroke-opacity:1;stroke-miterlimit:10;" d="M 256 648 L 328 612 " transform="matrix(1,0,0,-1,-61.5,698.5)"/>
<path style="fill:none;stroke-width:0.4;stroke-linecap:butt;stroke-linejoin:round;stroke:rgb(0%,0%,0%);stroke-opacity:1;stroke-miterlimit:10;" d="M 328 540 L 256 504 " transform="matrix(1,0,0,-1,-61.5,698.5)"/>
<path style="fill:none;stroke-width:0.4;stroke-linecap:butt;stroke-linejoin:round;stroke:rgb(0%,0%,0%);stroke-opacity:1;stroke-miterlimit:10;" d="M 256 504 L 184 540 " transform="matrix(1,0,0,-1,-61.5,698.5)"/>
<path style="fill:none;stroke-width:0.4;stroke-linecap:butt;stroke-linejoin:round;stroke:rgb(0%,0%,0%);stroke-opacity:1;stroke-miterlimit:10;" d="M 160 576 C 160 632 192 656 256 648 " transform="matrix(1,0,0,-1,-61.5,698.5)"/>
<path style="fill:none;stroke-width:0.4;stroke-linecap:butt;stroke-linejoin:round;stroke:rgb(0%,0%,0%);stroke-opacity:1;stroke-miterlimit:10;" d="M 352 576 C 352 632 320 656 256 648 " transform="matrix(1,0,0,-1,-61.5,698.5)"/>
<path style="fill:none;stroke-width:0.4;stroke-linecap:butt;stroke-linejoin:round;stroke:rgb(0%,0%,0%);stroke-opacity:1;stroke-miterlimit:10;" d="M 352 576 C 352 520 320 496 256 504 " transform="matrix(1,0,0,-1,-61.5,698.5)"/>
<path style="fill:none;stroke-width:0.4;stroke-linecap:butt;stroke-linejoin:round;stroke:rgb(0%,0%,0%);stroke-opacity:1;stroke-miterlimit:10;" d="M 160 576 C 160 520 192 496 256 504 " transform="matrix(1,0,0,-1,-61.5,698.5)"/>
<path style="fill:none;stroke-width:0.4;stroke-linecap:butt;stroke-linejoin:round;stroke:rgb(0%,0%,0%);stroke-opacity:1;stroke-miterlimit:10;" d="M 184 420 L 184 348 L 256 348 L 256 420 Z M 184 420 " transform="matrix(1,0,0,-1,-61.5,698.5)"/>
<path style="fill:none;stroke-width:0.4;stroke-linecap:butt;stroke-linejoin:round;stroke:rgb(0%,0%,0%);stroke-opacity:1;stroke-miterlimit:10;" d="M 220 402 L 202 384 L 220 366 L 238 384 Z M 220 402 " transform="matrix(1,0,0,-1,-61.5,698.5)"/>
<path style="fill:none;stroke-width:0.4;stroke-linecap:butt;stroke-linejoin:round;stroke:rgb(0%,0%,0%);stroke-opacity:1;stroke-miterlimit:10;" d="M 202 384 L 238 384 " transform="matrix(1,0,0,-1,-61.5,698.5)"/>
<path style="fill:none;stroke-width:0.4;stroke-linecap:butt;stroke-linejoin:round;stroke:rgb(0%,0%,0%);stroke-opacity:1;stroke-miterlimit:10;" d="M 184 420 L 202 384 " transform="matrix(1,0,0,-1,-61.5,698.5)"/>
<path style="fill:none;stroke-width:0.4;stroke-linecap:butt;stroke-linejoin:round;stroke:rgb(0%,0%,0%);stroke-opacity:1;stroke-miterlimit:10;" d="M 184 420 L 220 402 " transform="matrix(1,0,0,-1,-61.5,698.5)"/>
<path style="fill:none;stroke-width:0.4;stroke-linecap:butt;stroke-linejoin:round;stroke:rgb(0%,0%,0%);stroke-opacity:1;stroke-miterlimit:10;" d="M 220 402 L 256 420 " transform="matrix(1,0,0,-1,-61.5,698.5)"/>
<path style="fill:none;stroke-width:0.4;stroke-linecap:butt;stroke-linejoin:round;stroke:rgb(0%,0%,0%);stroke-opacity:1;stroke-miterlimit:10;" d="M 256 420 L 238 384 " transform="matrix(1,0,0,-1,-61.5,698.5)"/>
<path style="fill:none;stroke-width:0.4;stroke-linecap:butt;stroke-linejoin:round;stroke:rgb(0%,0%,0%);stroke-opacity:1;stroke-miterlimit:10;" d="M 238 384 L 256 348 " transform="matrix(1,0,0,-1,-61.5,698.5)"/>
<path style="fill:none;stroke-width:0.4;stroke-linecap:butt;stroke-linejoin:round;stroke:rgb(0%,0%,0%);stroke-opacity:1;stroke-miterlimit:10;" d="M 256 348 L 220 366 " transform="matrix(1,0,0,-1,-61.5,698.5)"/>
<path style="fill:none;stroke-width:0.4;stroke-linecap:butt;stroke-linejoin:round;stroke:rgb(0%,0%,0%);stroke-opacity:1;stroke-miterlimit:10;" d="M 220 366 L 184 348 " transform="matrix(1,0,0,-1,-61.5,698.5)"/>
<path style="fill:none;stroke-width:0.4;stroke-linecap:butt;stroke-linejoin:round;stroke:rgb(0%,0%,0%);stroke-opacity:1;stroke-miterlimit:10;" d="M 184 348 L 202 384 " transform="matrix(1,0,0,-1,-61.5,698.5)"/>
<path style=" stroke:none;fill-rule:evenodd;fill:rgb(0%,0%,0%);fill-opacity:1;" d="M 142.300781 314.5 C 142.300781 312.101562 138.699219 312.101562 138.699219 314.5 C 138.699219 316.898438 142.300781 316.898438 142.300781 314.5 Z M 142.300781 314.5 "/>
<path style=" stroke:none;fill-rule:evenodd;fill:rgb(0%,0%,0%);fill-opacity:1;" d="M 160.300781 296.5 C 160.300781 294.101562 156.699219 294.101562 156.699219 296.5 C 156.699219 298.898438 160.300781 298.898438 160.300781 296.5 Z M 160.300781 296.5 "/>
<path style=" stroke:none;fill-rule:evenodd;fill:rgb(0%,0%,0%);fill-opacity:1;" d="M 178.300781 314.5 C 178.300781 312.101562 174.699219 312.101562 174.699219 314.5 C 174.699219 316.898438 178.300781 316.898438 178.300781 314.5 Z M 178.300781 314.5 "/>
<path style=" stroke:none;fill-rule:evenodd;fill:rgb(0%,0%,0%);fill-opacity:1;" d="M 160.300781 332.5 C 160.300781 330.101562 156.699219 330.101562 156.699219 332.5 C 156.699219 334.898438 160.300781 334.898438 160.300781 332.5 Z M 160.300781 332.5 "/>
<path style=" stroke:none;fill-rule:evenodd;fill:rgb(0%,0%,0%);fill-opacity:1;" d="M 124.300781 350.5 C 124.300781 348.101562 120.699219 348.101562 120.699219 350.5 C 120.699219 352.898438 124.300781 352.898438 124.300781 350.5 Z M 124.300781 350.5 "/>
<path style=" stroke:none;fill-rule:evenodd;fill:rgb(0%,0%,0%);fill-opacity:1;" d="M 196.300781 350.5 C 196.300781 348.101562 192.699219 348.101562 192.699219 350.5 C 192.699219 352.898438 196.300781 352.898438 196.300781 350.5 Z M 196.300781 350.5 "/>
<path style=" stroke:none;fill-rule:evenodd;fill:rgb(0%,0%,0%);fill-opacity:1;" d="M 196.300781 278.5 C 196.300781 276.101562 192.699219 276.101562 192.699219 278.5 C 192.699219 280.898438 196.300781 280.898438 196.300781 278.5 Z M 196.300781 278.5 "/>
<path style=" stroke:none;fill-rule:evenodd;fill:rgb(0%,0%,0%);fill-opacity:1;" d="M 124.300781 278.5 C 124.300781 276.101562 120.699219 276.101562 120.699219 278.5 C 120.699219 280.898438 124.300781 280.898438 124.300781 278.5 Z M 124.300781 278.5 "/>
<path style="fill:none;stroke-width:0.4;stroke-linecap:butt;stroke-linejoin:round;stroke:rgb(0%,0%,0%);stroke-opacity:1;stroke-miterlimit:10;" d="M 256 420 L 256 348 L 328 348 L 328 420 Z M 256 420 " transform="matrix(1,0,0,-1,-61.5,698.5)"/>
<path style="fill:none;stroke-width:0.4;stroke-linecap:butt;stroke-linejoin:round;stroke:rgb(0%,0%,0%);stroke-opacity:1;stroke-miterlimit:10;" d="M 292 402 L 274 384 L 292 366 L 310 384 Z M 292 402 " transform="matrix(1,0,0,-1,-61.5,698.5)"/>
<path style="fill:none;stroke-width:0.4;stroke-linecap:butt;stroke-linejoin:round;stroke:rgb(0%,0%,0%);stroke-opacity:1;stroke-miterlimit:10;" d="M 274 384 L 310 384 " transform="matrix(1,0,0,-1,-61.5,698.5)"/>
<path style="fill:none;stroke-width:0.4;stroke-linecap:butt;stroke-linejoin:round;stroke:rgb(0%,0%,0%);stroke-opacity:1;stroke-miterlimit:10;" d="M 256 420 L 274 384 " transform="matrix(1,0,0,-1,-61.5,698.5)"/>
<path style="fill:none;stroke-width:0.4;stroke-linecap:butt;stroke-linejoin:round;stroke:rgb(0%,0%,0%);stroke-opacity:1;stroke-miterlimit:10;" d="M 256 420 L 292 402 " transform="matrix(1,0,0,-1,-61.5,698.5)"/>
<path style="fill:none;stroke-width:0.4;stroke-linecap:butt;stroke-linejoin:round;stroke:rgb(0%,0%,0%);stroke-opacity:1;stroke-miterlimit:10;" d="M 292 402 L 328 420 " transform="matrix(1,0,0,-1,-61.5,698.5)"/>
<path style="fill:none;stroke-width:0.4;stroke-linecap:butt;stroke-linejoin:round;stroke:rgb(0%,0%,0%);stroke-opacity:1;stroke-miterlimit:10;" d="M 328 420 L 310 384 " transform="matrix(1,0,0,-1,-61.5,698.5)"/>
<path style="fill:none;stroke-width:0.4;stroke-linecap:butt;stroke-linejoin:round;stroke:rgb(0%,0%,0%);stroke-opacity:1;stroke-miterlimit:10;" d="M 310 384 L 328 348 " transform="matrix(1,0,0,-1,-61.5,698.5)"/>
<path style="fill:none;stroke-width:0.4;stroke-linecap:butt;stroke-linejoin:round;stroke:rgb(0%,0%,0%);stroke-opacity:1;stroke-miterlimit:10;" d="M 328 348 L 292 366 " transform="matrix(1,0,0,-1,-61.5,698.5)"/>
<path style="fill:none;stroke-width:0.4;stroke-linecap:butt;stroke-linejoin:round;stroke:rgb(0%,0%,0%);stroke-opacity:1;stroke-miterlimit:10;" d="M 292 366 L 256 348 " transform="matrix(1,0,0,-1,-61.5,698.5)"/>
<path style="fill:none;stroke-width:0.4;stroke-linecap:butt;stroke-linejoin:round;stroke:rgb(0%,0%,0%);stroke-opacity:1;stroke-miterlimit:10;" d="M 256 348 L 274 384 " transform="matrix(1,0,0,-1,-61.5,698.5)"/>
<path style=" stroke:none;fill-rule:evenodd;fill:rgb(0%,0%,0%);fill-opacity:1;" d="M 214.300781 314.5 C 214.300781 312.101562 210.699219 312.101562 210.699219 314.5 C 210.699219 316.898438 214.300781 316.898438 214.300781 314.5 Z M 214.300781 314.5 "/>
<path style=" stroke:none;fill-rule:evenodd;fill:rgb(0%,0%,0%);fill-opacity:1;" d="M 232.300781 296.5 C 232.300781 294.101562 228.699219 294.101562 228.699219 296.5 C 228.699219 298.898438 232.300781 298.898438 232.300781 296.5 Z M 232.300781 296.5 "/>
<path style=" stroke:none;fill-rule:evenodd;fill:rgb(0%,0%,0%);fill-opacity:1;" d="M 250.300781 314.5 C 250.300781 312.101562 246.699219 312.101562 246.699219 314.5 C 246.699219 316.898438 250.300781 316.898438 250.300781 314.5 Z M 250.300781 314.5 "/>
<path style=" stroke:none;fill-rule:evenodd;fill:rgb(0%,0%,0%);fill-opacity:1;" d="M 232.300781 332.5 C 232.300781 330.101562 228.699219 330.101562 228.699219 332.5 C 228.699219 334.898438 232.300781 334.898438 232.300781 332.5 Z M 232.300781 332.5 "/>
<path style=" stroke:none;fill-rule:evenodd;fill:rgb(0%,0%,0%);fill-opacity:1;" d="M 196.300781 350.5 C 196.300781 348.101562 192.699219 348.101562 192.699219 350.5 C 192.699219 352.898438 196.300781 352.898438 196.300781 350.5 Z M 196.300781 350.5 "/>
<path style=" stroke:none;fill-rule:evenodd;fill:rgb(0%,0%,0%);fill-opacity:1;" d="M 268.300781 350.5 C 268.300781 348.101562 264.699219 348.101562 264.699219 350.5 C 264.699219 352.898438 268.300781 352.898438 268.300781 350.5 Z M 268.300781 350.5 "/>
<path style=" stroke:none;fill-rule:evenodd;fill:rgb(0%,0%,0%);fill-opacity:1;" d="M 268.300781 278.5 C 268.300781 276.101562 264.699219 276.101562 264.699219 278.5 C 264.699219 280.898438 268.300781 280.898438 268.300781 278.5 Z M 268.300781 278.5 "/>
<path style=" stroke:none;fill-rule:evenodd;fill:rgb(0%,0%,0%);fill-opacity:1;" d="M 196.300781 278.5 C 196.300781 276.101562 192.699219 276.101562 192.699219 278.5 C 192.699219 280.898438 196.300781 280.898438 196.300781 278.5 Z M 196.300781 278.5 "/>
<path style="fill:none;stroke-width:0.4;stroke-linecap:butt;stroke-linejoin:round;stroke:rgb(0%,0%,0%);stroke-opacity:1;stroke-miterlimit:10;" d="M 184 420 C 232 436 280 436 328 420 " transform="matrix(1,0,0,-1,-61.5,698.5)"/>
<path style="fill:none;stroke-width:0.4;stroke-linecap:butt;stroke-linejoin:round;stroke:rgb(0%,0%,0%);stroke-opacity:1;stroke-miterlimit:10;" d="M 184 348 C 232 332 280 332 328 348 " transform="matrix(1,0,0,-1,-61.5,698.5)"/>
<path style=" stroke:none;fill-rule:evenodd;fill:rgb(0%,0%,0%);fill-opacity:1;" d="M 196.300781 242.5 C 196.300781 240.101562 192.699219 240.101562 192.699219 242.5 C 192.699219 244.898438 196.300781 244.898438 196.300781 242.5 Z M 196.300781 242.5 "/>
<path style=" stroke:none;fill-rule:evenodd;fill:rgb(0%,0%,0%);fill-opacity:1;" d="M 196.300781 386.5 C 196.300781 384.101562 192.699219 384.101562 192.699219 386.5 C 192.699219 388.898438 196.300781 388.898438 196.300781 386.5 Z M 196.300781 386.5 "/>
<path style=" stroke:none;fill-rule:evenodd;fill:rgb(0%,0%,0%);fill-opacity:1;" d="M 100.300781 314.5 C 100.300781 312.101562 96.699219 312.101562 96.699219 314.5 C 96.699219 316.898438 100.300781 316.898438 100.300781 314.5 Z M 100.300781 314.5 "/>
<path style=" stroke:none;fill-rule:evenodd;fill:rgb(0%,0%,0%);fill-opacity:1;" d="M 292.300781 314.5 C 292.300781 312.101562 288.699219 312.101562 288.699219 314.5 C 288.699219 316.898438 292.300781 316.898438 292.300781 314.5 Z M 292.300781 314.5 "/>
<path style="fill:none;stroke-width:0.4;stroke-linecap:butt;stroke-linejoin:round;stroke:rgb(0%,0%,0%);stroke-opacity:1;stroke-miterlimit:10;" d="M 160 384 L 184 420 " transform="matrix(1,0,0,-1,-61.5,698.5)"/>
<path style="fill:none;stroke-width:0.4;stroke-linecap:butt;stroke-linejoin:round;stroke:rgb(0%,0%,0%);stroke-opacity:1;stroke-miterlimit:10;" d="M 160 384 L 184 348 " transform="matrix(1,0,0,-1,-61.5,698.5)"/>
<path style="fill:none;stroke-width:0.4;stroke-linecap:butt;stroke-linejoin:round;stroke:rgb(0%,0%,0%);stroke-opacity:1;stroke-miterlimit:10;" d="M 352 384 L 328 348 " transform="matrix(1,0,0,-1,-61.5,698.5)"/>
<path style="fill:none;stroke-width:0.4;stroke-linecap:butt;stroke-linejoin:round;stroke:rgb(0%,0%,0%);stroke-opacity:1;stroke-miterlimit:10;" d="M 352 384 L 328 420 " transform="matrix(1,0,0,-1,-61.5,698.5)"/>
<path style="fill:none;stroke-width:0.4;stroke-linecap:butt;stroke-linejoin:round;stroke:rgb(0%,0%,0%);stroke-opacity:1;stroke-miterlimit:10;" d="M 256 456 L 184 420 " transform="matrix(1,0,0,-1,-61.5,698.5)"/>
<path style="fill:none;stroke-width:0.4;stroke-linecap:butt;stroke-linejoin:round;stroke:rgb(0%,0%,0%);stroke-opacity:1;stroke-miterlimit:10;" d="M 256 456 L 328 420 " transform="matrix(1,0,0,-1,-61.5,698.5)"/>
<path style="fill:none;stroke-width:0.4;stroke-linecap:butt;stroke-linejoin:round;stroke:rgb(0%,0%,0%);stroke-opacity:1;stroke-miterlimit:10;" d="M 328 348 L 256 312 " transform="matrix(1,0,0,-1,-61.5,698.5)"/>
<path style="fill:none;stroke-width:0.4;stroke-linecap:butt;stroke-linejoin:round;stroke:rgb(0%,0%,0%);stroke-opacity:1;stroke-miterlimit:10;" d="M 256 312 L 184 348 " transform="matrix(1,0,0,-1,-61.5,698.5)"/>
<path style="fill:none;stroke-width:0.4;stroke-linecap:butt;stroke-linejoin:round;stroke:rgb(0%,0%,0%);stroke-opacity:1;stroke-miterlimit:10;" d="M 160 384 C 160 440 192 464 256 456 " transform="matrix(1,0,0,-1,-61.5,698.5)"/>
<path style="fill:none;stroke-width:0.4;stroke-linecap:butt;stroke-linejoin:round;stroke:rgb(0%,0%,0%);stroke-opacity:1;stroke-miterlimit:10;" d="M 352 384 C 352 440 320 464 256 456 " transform="matrix(1,0,0,-1,-61.5,698.5)"/>
<path style="fill:none;stroke-width:0.4;stroke-linecap:butt;stroke-linejoin:round;stroke:rgb(0%,0%,0%);stroke-opacity:1;stroke-miterlimit:10;" d="M 352 384 C 352 328 320 304 256 312 " transform="matrix(1,0,0,-1,-61.5,698.5)"/>
<path style="fill:none;stroke-width:0.4;stroke-linecap:butt;stroke-linejoin:round;stroke:rgb(0%,0%,0%);stroke-opacity:1;stroke-miterlimit:10;" d="M 160 384 C 160 328 192 304 256 312 " transform="matrix(1,0,0,-1,-61.5,698.5)"/>
<path style=" stroke:none;fill-rule:evenodd;fill:rgb(0%,0%,0%);fill-opacity:1;" d="M 4.300781 434.5 C 4.300781 432.101562 0.699219 432.101562 0.699219 434.5 C 0.699219 436.898438 4.300781 436.898438 4.300781 434.5 Z M 4.300781 434.5 "/>
<path style=" stroke:none;fill-rule:evenodd;fill:rgb(0%,0%,0%);fill-opacity:1;" d="M 388.300781 434.5 C 388.300781 432.101562 384.699219 432.101562 384.699219 434.5 C 384.699219 436.898438 388.300781 436.898438 388.300781 434.5 Z M 388.300781 434.5 "/>
<path style=" stroke:none;fill-rule:evenodd;fill:rgb(0%,0%,0%);fill-opacity:1;" d="M 196.300781 2.5 C 196.300781 0.101562 192.699219 0.101562 192.699219 2.5 C 192.699219 4.898438 196.300781 4.898438 196.300781 2.5 Z M 196.300781 2.5 "/>
<path style="fill:none;stroke-width:0.4;stroke-linecap:butt;stroke-linejoin:round;stroke:rgb(0%,0%,0%);stroke-opacity:1;stroke-miterlimit:10;" d="M 64 264 L 160 576 " transform="matrix(1,0,0,-1,-61.5,698.5)"/>
<path style="fill:none;stroke-width:0.4;stroke-linecap:butt;stroke-linejoin:round;stroke:rgb(0%,0%,0%);stroke-opacity:1;stroke-miterlimit:10;" d="M 64 264 L 160 384 " transform="matrix(1,0,0,-1,-61.5,698.5)"/>
<path style="fill:none;stroke-width:0.4;stroke-linecap:butt;stroke-linejoin:round;stroke:rgb(0%,0%,0%);stroke-opacity:1;stroke-miterlimit:10;" d="M 352 384 L 448 264 " transform="matrix(1,0,0,-1,-61.5,698.5)"/>
<path style="fill:none;stroke-width:0.4;stroke-linecap:butt;stroke-linejoin:round;stroke:rgb(0%,0%,0%);stroke-opacity:1;stroke-miterlimit:10;" d="M 448 264 L 352 576 " transform="matrix(1,0,0,-1,-61.5,698.5)"/>
<path style="fill:none;stroke-width:0.4;stroke-linecap:butt;stroke-linejoin:round;stroke:rgb(0%,0%,0%);stroke-opacity:1;stroke-miterlimit:10;" d="M 64 264 L 256 312 " transform="matrix(1,0,0,-1,-61.5,698.5)"/>
<path style="fill:none;stroke-width:0.4;stroke-linecap:butt;stroke-linejoin:round;stroke:rgb(0%,0%,0%);stroke-opacity:1;stroke-miterlimit:10;" d="M 256 312 L 448 264 " transform="matrix(1,0,0,-1,-61.5,698.5)"/>
<path style="fill:none;stroke-width:0.4;stroke-linecap:butt;stroke-linejoin:round;stroke:rgb(0%,0%,0%);stroke-opacity:1;stroke-miterlimit:10;" d="M 256 696 C 192 680 160 640 160 576 " transform="matrix(1,0,0,-1,-61.5,698.5)"/>
<path style="fill:none;stroke-width:0.4;stroke-linecap:butt;stroke-linejoin:round;stroke:rgb(0%,0%,0%);stroke-opacity:1;stroke-miterlimit:10;" d="M 256 696 C 320 680 352 640 352 576 " transform="matrix(1,0,0,-1,-61.5,698.5)"/>
<path style="fill:none;stroke-width:0.4;stroke-linecap:butt;stroke-linejoin:round;stroke:rgb(0%,0%,0%);stroke-opacity:1;stroke-miterlimit:10;" d="M 256 696 L 256 648 " transform="matrix(1,0,0,-1,-61.5,698.5)"/>
<path style="fill:none;stroke-width:0.4;stroke-linecap:butt;stroke-linejoin:round;stroke:rgb(0%,0%,0%);stroke-opacity:1;stroke-miterlimit:10;" d="M 160 576 L 160 384 " transform="matrix(1,0,0,-1,-61.5,698.5)"/>
<path style="fill:none;stroke-width:0.4;stroke-linecap:butt;stroke-linejoin:round;stroke:rgb(0%,0%,0%);stroke-opacity:1;stroke-miterlimit:10;" d="M 352 576 L 352 384 " transform="matrix(1,0,0,-1,-61.5,698.5)"/>
<path style="fill:none;stroke-width:0.4;stroke-linecap:butt;stroke-linejoin:round;stroke:rgb(0%,0%,0%);stroke-opacity:1;stroke-miterlimit:10;" d="M 160 384 C 160 448 192 488 256 504 " transform="matrix(1,0,0,-1,-61.5,698.5)"/>
<path style="fill:none;stroke-width:0.4;stroke-linecap:butt;stroke-linejoin:round;stroke:rgb(0%,0%,0%);stroke-opacity:1;stroke-miterlimit:10;" d="M 352 384 C 352 448 320 488 256 504 " transform="matrix(1,0,0,-1,-61.5,698.5)"/>
<path style="fill:none;stroke-width:0.4;stroke-linecap:butt;stroke-linejoin:round;stroke:rgb(0%,0%,0%);stroke-opacity:1;stroke-miterlimit:10;" d="M 64 264 L 448 264 " transform="matrix(1,0,0,-1,-61.5,698.5)"/>
<path style="fill:none;stroke-width:0.4;stroke-linecap:butt;stroke-linejoin:round;stroke:rgb(0%,0%,0%);stroke-opacity:1;stroke-miterlimit:10;" d="M 64 264 C 64 552 128 696 256 696 " transform="matrix(1,0,0,-1,-61.5,698.5)"/>
<path style="fill:none;stroke-width:0.4;stroke-linecap:butt;stroke-linejoin:round;stroke:rgb(0%,0%,0%);stroke-opacity:1;stroke-miterlimit:10;" d="M 448 264 C 448 552 384 696 256 696 " transform="matrix(1,0,0,-1,-61.5,698.5)"/>
</g>
</svg>
